# xmcd
#
# Track frame offsets:
# 150
# 24644
# 44848
# 65075
# 84841
# 108342
# 132500
# 159386
# 174156
# 196732
# 219764
#
# Disc length: 3350 seconds
#
# Revision: 1
# Processed by: cddbd v1.5.1PL0 Copyright (c) Steve Scherf et al.
# Submitted via: CedeCatalogueitor 2.6.0.6 http://personales.ya.com/cdcatalogueitor
#
DISCID=8e0d140b
DTITLE=Larry Martin Band - En La Central
DYEAR=2001
DGENRE=Jazz
TTITLE0=Trouble Man
TTITLE1=I'm Not Blue
TTITLE2=I Ain't Got Nothing But The Blues
TTITLE3=Reflections
TTITLE4=What Are You Doing The Rest Of Your Life
TTITLE5=The Only Thing Is The Blues
TTITLE6=Ballad Of Sad Young Man
TTITLE7=Just One Of Those Things
TTITLE8=When I Look In Your Eyes
TTITLE9=Turn Around Blues
TTITLE10=The Last Rain
EXTD=
EXTT0=
EXTT1=
EXTT2=
EXTT3=
EXTT4=
EXTT5=
EXTT6=
EXTT7=
EXTT8=
EXTT9=
EXTT10=
PLAYORDER=
